<svg width="33" height="33" viewBox="0 0 33 33" fill="none" xmlns="http://www.w3.org/2000/svg">
<path opacity="0.9" fill-rule="evenodd" clip-rule="evenodd" d="M0.805449 0.805449C1.87941 -0.268483 3.6206 -0.268483 4.69456 0.805449L16.5 12.6109L28.3055 0.805449C29.3794 -0.268483 31.1207 -0.268483 32.1946 0.805449C33.2685 1.87941 33.2685 3.6206 32.1946 4.69456L20.3891 16.5L32.1946 28.3055C33.2685 29.3794 33.2685 31.1207 32.1946 32.1946C31.1207 33.2685 29.3794 33.2685 28.3055 32.1946L16.5 20.3891L4.69456 32.1946C3.6206 33.2685 1.87941 33.2685 0.805449 32.1946C-0.268483 31.1207 -0.268483 29.3794 0.805449 28.3055L12.6109 16.5L0.805449 4.69456C-0.268483 3.6206 -0.268483 1.87941 0.805449 0.805449Z" fill="#7B5BF2"/>
</svg>
