<svg width="44" height="44" viewBox="0 0 44 44" fill="none" xmlns="http://www.w3.org/2000/svg">
<circle cx="22" cy="22" r="22" fill="#09184D"/>
<path d="M20.5004 21.4997C23.8146 21.4997 26.5006 18.7019 26.5006 15.2499C26.5006 11.7978 23.8146 9 20.5004 9C17.1862 9 14.5002 11.7978 14.5002 15.2499C14.5002 18.7019 17.1862 21.4997 20.5004 21.4997ZM24.7006 23.0622H23.9177C22.8771 23.5602 21.7192 23.8434 20.5004 23.8434C19.2816 23.8434 18.1284 23.5602 17.0831 23.0622H16.3002C12.822 23.0622 10 26.0015 10 29.6245V31.6557C10 32.9496 11.0079 33.9994 12.2501 33.9994H25.1365C25.024 33.6674 24.9771 33.3158 25.0146 32.9594L25.3334 29.9858L25.3897 29.4439L25.76 29.0581L29.3836 25.2838C28.2351 23.9313 26.571 23.0622 24.7006 23.0622ZM26.8241 30.1567L26.5053 33.1352C26.4538 33.6332 26.8569 34.0531 27.3304 33.9945L30.1852 33.6625L36.6495 26.9293L33.2884 23.4284L26.8241 30.1567ZM39.673 22.1296L37.8964 20.279C37.4604 19.8249 36.7479 19.8249 36.312 20.279L34.54 22.1247L34.3478 22.3249L37.7136 25.8258L39.673 23.7848C40.109 23.3258 40.109 22.5885 39.673 22.1296Z" fill="#EDF2FA"/>
</svg>
