<svg width="70" height="70" viewBox="0 0 70 70" fill="none" xmlns="http://www.w3.org/2000/svg">
<path d="M34.875 69.0285C53.8801 69.0285 69.2867 53.6218 69.2867 34.6168C69.2867 15.6117 53.8801 0.205078 34.875 0.205078C15.87 0.205078 0.463318 15.6117 0.463318 34.6168C0.463318 53.6218 15.87 69.0285 34.875 69.0285Z" fill="url(#paint0_linear_40_26)"/>
<path d="M52.8068 32.251C53.331 31.7402 53.5192 30.9874 53.2907 30.2884C53.0622 29.5894 52.4707 29.0921 51.7448 28.9845L41.5154 27.4925C41.3541 27.4656 41.2197 27.3715 41.1525 27.2371L36.5822 17.9755C36.2596 17.3168 35.6009 16.9136 34.875 16.9136C34.1492 16.9136 33.4905 17.3168 33.1679 17.9755L28.5976 27.2371C28.5304 27.3715 28.396 27.479 28.2347 27.4925L18.0052 28.9845C17.2794 29.0921 16.6879 29.5894 16.4594 30.2884C16.2309 30.9874 16.4191 31.7402 16.9433 32.251L24.3365 39.4694C24.444 39.5769 24.4978 39.7382 24.4709 39.8861L22.7234 50.0751C22.6293 50.6263 22.7772 51.1908 23.1401 51.621C23.503 52.0511 24.0407 52.3065 24.6053 52.3065C24.9145 52.3065 25.2102 52.2259 25.4925 52.078L34.6331 47.2658C34.7675 47.1985 34.9422 47.1985 35.0767 47.2658L44.2173 52.078C44.4996 52.2259 44.7953 52.3065 45.1044 52.3065C45.669 52.3065 46.2067 52.0511 46.5696 51.621C46.9326 51.1908 47.0804 50.6263 46.9863 50.0751L45.2389 39.8861C45.212 39.7248 45.2658 39.5769 45.3733 39.4694L52.8068 32.251ZM43.8543 40.128L45.6018 50.3171C45.6287 50.5053 45.5615 50.6263 45.4943 50.7069C45.3464 50.8817 45.1044 50.9354 44.9028 50.8279L35.7622 46.0156C35.4934 45.8678 35.1842 45.8006 34.875 45.8006C34.5659 45.8006 34.2567 45.8812 33.9879 46.0156L24.8473 50.8279C24.6456 50.9354 24.4037 50.8817 24.2558 50.7069C24.1886 50.6263 24.1214 50.5053 24.1483 50.3171L25.8957 40.128C26.0033 39.5097 25.8016 38.8779 25.3446 38.4343L17.9515 31.2159C17.7633 31.0277 17.8036 30.8127 17.8305 30.732C17.8574 30.6514 17.9515 30.4497 18.2203 30.4094L28.4497 28.9173C29.0681 28.8232 29.6057 28.4334 29.888 27.8689L34.4583 18.6073C34.5793 18.3653 34.7944 18.3384 34.8885 18.3384C34.9826 18.3384 35.1976 18.3653 35.3186 18.6073L39.8889 27.8689C40.1712 28.4334 40.7089 28.8232 41.3272 28.9173L51.5566 30.4094C51.8255 30.4497 51.9196 30.6514 51.9465 30.732C51.9733 30.8127 52.0137 31.0277 51.8255 31.2159L44.4323 38.4343C43.9484 38.8779 43.7468 39.5097 43.8543 40.128Z" fill="white"/>
<defs>
<linearGradient id="paint0_linear_40_26" x1="34.875" y1="69.0285" x2="34.875" y2="0.205078" gradientUnits="userSpaceOnUse">
<stop stop-color="#09184D"/>
<stop offset="1" stop-color="#7B5BF2" stop-opacity="0.95"/>
</linearGradient>
</defs>
</svg>
