<svg width="70" height="70" viewBox="0 0 70 70" fill="none" xmlns="http://www.w3.org/2000/svg">
<path d="M57.558 8.80811H11.6757C6.92446 8.80811 3.0728 12.6598 3.0728 17.411V57.558C3.0728 62.3093 6.92446 66.1609 11.6757 66.1609H57.558C62.3092 66.1609 66.1609 62.3093 66.1609 57.558V17.411C66.1609 12.6598 62.3092 8.80811 57.558 8.80811Z" fill="#CCCCCC"/>
<path d="M57.558 8.80811H11.6757C6.92446 8.80811 3.0728 12.6598 3.0728 17.411V43.2198C3.0728 47.9711 6.92446 51.8227 11.6757 51.8227H57.558C62.3092 51.8227 66.1609 47.9711 66.1609 43.2198V17.411C66.1609 12.6598 62.3092 8.80811 57.558 8.80811Z" fill="#EAEAEA"/>
<path d="M66.1609 17.411V23.1463H3.0728V17.411C3.0728 15.1294 3.97918 12.9412 5.59254 11.3278C7.2059 9.71448 9.39408 8.80811 11.6757 8.80811H57.558C59.8396 8.80811 62.0278 9.71448 63.6411 11.3278C65.2545 12.9412 66.1609 15.1294 66.1609 17.411Z" fill="#7B5BF2"/>
<path d="M57.558 5.94036H54.6903V3.07272C54.6903 2.31217 54.3882 1.58278 53.8504 1.04499C53.3126 0.507204 52.5832 0.205078 51.8227 0.205078C51.0622 0.205078 50.3328 0.507204 49.795 1.04499C49.2572 1.58278 48.9551 2.31217 48.9551 3.07272V5.94036H20.2787V3.07272C20.2787 2.31217 19.9765 1.58278 19.4387 1.04499C18.901 0.507204 18.1716 0.205078 17.411 0.205078C16.6505 0.205078 15.9211 0.507204 15.3833 1.04499C14.8455 1.58278 14.5434 2.31217 14.5434 3.07272V5.94036H11.6757C8.63355 5.94036 5.71597 7.14886 3.56482 9.30001C1.41367 11.4512 0.20517 14.3687 0.20517 17.4109L0.20517 57.5579C0.20517 60.6001 1.41367 63.5177 3.56482 65.6688C5.71597 67.8199 8.63355 69.0285 11.6757 69.0285H57.558C60.6002 69.0285 63.5177 67.8199 65.6689 65.6688C67.82 63.5177 69.0285 60.6001 69.0285 57.5579V17.4109C69.0285 14.3687 67.82 11.4512 65.6689 9.30001C63.5177 7.14886 60.6002 5.94036 57.558 5.94036ZM63.2933 57.5579C63.2933 59.079 62.689 60.5378 61.6134 61.6133C60.5379 62.6889 59.0791 63.2932 57.558 63.2932H11.6757C10.1546 63.2932 8.69585 62.6889 7.62028 61.6133C6.5447 60.5378 5.94045 59.079 5.94045 57.5579V17.4109C5.94045 15.8898 6.5447 14.431 7.62028 13.3555C8.69585 12.2799 10.1546 11.6756 11.6757 11.6756H14.5434V14.5433C14.5434 15.3038 14.8455 16.0332 15.3833 16.571C15.9211 17.1088 16.6505 17.4109 17.411 17.4109C18.1716 17.4109 18.901 17.1088 19.4387 16.571C19.9765 16.0332 20.2787 15.3038 20.2787 14.5433V11.6756H48.9551V14.5433C48.9551 15.3038 49.2572 16.0332 49.795 16.571C50.3328 17.1088 51.0622 17.4109 51.8227 17.4109C52.5832 17.4109 53.3126 17.1088 53.8504 16.571C54.3882 16.0332 54.6903 15.3038 54.6903 14.5433V11.6756H57.558C59.0791 11.6756 60.5379 12.2799 61.6134 13.3555C62.689 14.431 63.2933 15.8898 63.2933 17.4109V57.5579Z" fill="#09184D"/>
<path d="M54.6903 20.2788H14.5433C13.7828 20.2788 13.0534 20.5809 12.5156 21.1187C11.9778 21.6565 11.6757 22.3859 11.6757 23.1464C11.6757 23.907 11.9778 24.6364 12.5156 25.1742C13.0534 25.712 13.7828 26.0141 14.5433 26.0141H54.6903C55.4509 26.0141 56.1803 25.712 56.718 25.1742C57.2558 24.6364 57.558 23.907 57.558 23.1464C57.558 22.3859 57.2558 21.6565 56.718 21.1187C56.1803 20.5809 55.4509 20.2788 54.6903 20.2788Z" fill="#09184D"/>
<path d="M20.2786 34.6169H14.5433C13.7828 34.6169 13.0534 34.9191 12.5156 35.4569C11.9778 35.9946 11.6757 36.724 11.6757 37.4846C11.6757 38.2451 11.9778 38.9745 12.5156 39.5123C13.0534 40.0501 13.7828 40.3522 14.5433 40.3522H20.2786C21.0392 40.3522 21.7686 40.0501 22.3064 39.5123C22.8441 38.9745 23.1463 38.2451 23.1463 37.4846C23.1463 36.724 22.8441 35.9946 22.3064 35.4569C21.7686 34.9191 21.0392 34.6169 20.2786 34.6169Z" fill="#09184D"/>
<path d="M20.2786 48.9548H14.5433C13.7828 48.9548 13.0534 49.257 12.5156 49.7947C11.9778 50.3325 11.6757 51.0619 11.6757 51.8225C11.6757 52.583 11.9778 53.3124 12.5156 53.8502C13.0534 54.388 13.7828 54.6901 14.5433 54.6901H20.2786C21.0392 54.6901 21.7686 54.388 22.3064 53.8502C22.8441 53.3124 23.1463 52.583 23.1463 51.8225C23.1463 51.0619 22.8441 50.3325 22.3064 49.7947C21.7686 49.257 21.0392 48.9548 20.2786 48.9548Z" fill="#09184D"/>
<path d="M37.4845 34.6169H31.7492C30.9886 34.6169 30.2592 34.9191 29.7215 35.4569C29.1837 35.9946 28.8815 36.724 28.8815 37.4846C28.8815 38.2451 29.1837 38.9745 29.7215 39.5123C30.2592 40.0501 30.9886 40.3522 31.7492 40.3522H37.4845C38.245 40.3522 38.9744 40.0501 39.5122 39.5123C40.05 38.9745 40.3521 38.2451 40.3521 37.4846C40.3521 36.724 40.05 35.9946 39.5122 35.4569C38.9744 34.9191 38.245 34.6169 37.4845 34.6169Z" fill="#09184D"/>
<path d="M37.4845 48.9548H31.7492C30.9886 48.9548 30.2592 49.257 29.7215 49.7947C29.1837 50.3325 28.8815 51.0619 28.8815 51.8225C28.8815 52.583 29.1837 53.3124 29.7215 53.8502C30.2592 54.388 30.9886 54.6901 31.7492 54.6901H37.4845C38.245 54.6901 38.9744 54.388 39.5122 53.8502C40.05 53.3124 40.3521 52.583 40.3521 51.8225C40.3521 51.0619 40.05 50.3325 39.5122 49.7947C38.9744 49.257 38.245 48.9548 37.4845 48.9548Z" fill="#09184D"/>
<path d="M54.6903 34.6169H48.955C48.1945 34.6169 47.4651 34.9191 46.9273 35.4569C46.3895 35.9946 46.0874 36.724 46.0874 37.4846C46.0874 38.2451 46.3895 38.9745 46.9273 39.5123C47.4651 40.0501 48.1945 40.3522 48.955 40.3522H54.6903C55.4509 40.3522 56.1803 40.0501 56.7181 39.5123C57.2558 38.9745 57.558 38.2451 57.558 37.4846C57.558 36.724 57.2558 35.9946 56.7181 35.4569C56.1803 34.9191 55.4509 34.6169 54.6903 34.6169Z" fill="#09184D"/>
<path d="M54.6903 48.9548H48.955C48.1945 48.9548 47.4651 49.257 46.9273 49.7947C46.3895 50.3325 46.0874 51.0619 46.0874 51.8225C46.0874 52.583 46.3895 53.3124 46.9273 53.8502C47.4651 54.388 48.1945 54.6901 48.955 54.6901H54.6903C55.4509 54.6901 56.1803 54.388 56.7181 53.8502C57.2558 53.3124 57.558 52.583 57.558 51.8225C57.558 51.0619 57.2558 50.3325 56.7181 49.7947C56.1803 49.257 55.4509 48.9548 54.6903 48.9548Z" fill="#09184D"/>
</svg>
