<svg width="21" height="25" viewBox="0 0 21 25" fill="none" xmlns="http://www.w3.org/2000/svg">
<path d="M19.91 10.4241H18.1379V6.71558C18.1379 3.01262 14.7133 0 10.5 0C6.28667 0 2.86212 3.01459 2.86212 6.71997V10.4241H1.10967C0.502452 10.4241 0 10.8478 0 11.3813V22.5862C0 23.9177 1.24323 25 2.75882 25H18.2608C19.7764 25 21 23.9177 21 22.5862V11.3813C21 10.8478 20.5172 10.4241 19.91 10.4241ZM5.05864 6.71997C5.05864 4.07982 7.49916 1.93188 10.5 1.93188C13.5008 1.93188 15.9414 4.07783 15.9414 6.71558V10.4241H5.05864V6.71997ZM18.8035 22.5862C18.8035 22.8525 18.5639 23.0702 18.2608 23.0702H2.75882C2.4557 23.0702 2.19651 22.8525 2.19651 22.5862V12.3539H18.8035V22.5862Z" fill="#09184D" fill-opacity="0.5"/>
<path d="M10.5 20.6059C11.1072 20.6059 11.5982 20.1734 11.5982 19.6399V16.1626C11.5982 15.6291 11.1072 15.1967 10.5 15.1967C9.89279 15.1967 9.40173 15.6291 9.40173 16.1626V19.6399C9.40173 20.1734 9.89277 20.6059 10.5 20.6059Z" fill="#09184D" fill-opacity="0.5"/>
</svg>
