<svg width="70" height="70" viewBox="0 0 70 70" fill="none" xmlns="http://www.w3.org/2000/svg">
<path d="M35.1291 69.0285C54.1341 69.0285 69.5408 53.6218 69.5408 34.6168C69.5408 15.6117 54.1341 0.205078 35.1291 0.205078C16.124 0.205078 0.717407 15.6117 0.717407 34.6168C0.717407 53.6218 16.124 69.0285 35.1291 69.0285Z" fill="#09184D"/>
<path d="M45.9064 10.9587H20.0836C18.7722 10.9587 17.9232 12.0933 17.9232 13.4047V55.8294C17.9232 57.1408 18.7722 58.2753 20.0836 58.2753H50.188C51.4994 58.2753 52.3484 57.1408 52.3484 55.8294V17.4878L45.9064 10.9587Z" fill="#EDF2FA"/>
<path d="M48.1335 17.4851L52.3483 17.4878L45.9064 10.9587V15.2387C45.9064 16.5496 46.8339 17.4851 48.1335 17.4851Z" fill="#808085"/>
<path d="M45.8827 45.1016H24.3754C23.9302 45.1016 23.5689 44.7403 23.5689 44.295C23.5689 43.8498 23.9302 43.4885 24.3754 43.4885H45.8827C46.3279 43.4885 46.6893 43.8498 46.6893 44.295C46.6893 44.7403 46.3279 45.1016 45.8827 45.1016Z" fill="#808085"/>
<path d="M45.8827 49.4031H24.3754C23.9302 49.4031 23.5689 49.0418 23.5689 48.5966C23.5689 48.1514 23.9302 47.79 24.3754 47.79H45.8827C46.3279 47.79 46.6893 48.1514 46.6893 48.5966C46.6893 49.0418 46.3279 49.4031 45.8827 49.4031Z" fill="#808085"/>
<path d="M45.8827 53.7046H24.3754C23.9302 53.7046 23.5689 53.3433 23.5689 52.8981C23.5689 52.4529 23.9302 52.0916 24.3754 52.0916H45.8827C46.3279 52.0916 46.6893 52.4529 46.6893 52.8981C46.6893 53.3433 46.3279 53.7046 45.8827 53.7046Z" fill="#808085"/>
<path d="M35.9941 23.9177H24.1382C23.8928 23.9177 23.6936 23.5564 23.6936 23.1112C23.6936 22.666 23.8928 22.3047 24.1382 22.3047H35.9941C36.2395 22.3047 36.4387 22.666 36.4387 23.1112C36.4387 23.5564 36.2395 23.9177 35.9941 23.9177Z" fill="#808085"/>
<path d="M35.9941 28.2192H24.1382C23.8928 28.2192 23.6936 27.8579 23.6936 27.4127C23.6936 26.9675 23.8928 26.6062 24.1382 26.6062H35.9941C36.2395 26.6062 36.4387 26.9675 36.4387 27.4127C36.4387 27.8579 36.2395 28.2192 35.9941 28.2192Z" fill="#808085"/>
<path d="M35.9941 32.5205H24.1382C23.8928 32.5205 23.6936 32.1592 23.6936 31.714C23.6936 31.2688 23.8928 30.9075 24.1382 30.9075H35.9941C36.2395 30.9075 36.4387 31.2688 36.4387 31.714C36.4387 32.1592 36.2395 32.5205 35.9941 32.5205Z" fill="#808085"/>
<path opacity="0.4" d="M35.748 34.5153C39.462 34.5153 42.4728 31.5045 42.4728 27.7905C42.4728 24.0765 39.462 21.0657 35.748 21.0657C32.034 21.0657 29.0232 24.0765 29.0232 27.7905C29.0232 31.5045 32.034 34.5153 35.748 34.5153Z" fill="#808085" fill-opacity="0.25"/>
</svg>
