<svg width="44" height="44" viewBox="0 0 44 44" fill="none" xmlns="http://www.w3.org/2000/svg">
<circle cx="22" cy="22" r="22" fill="#09184D"/>
<path d="M35.8142 21.8247L22.2942 8.30469C22.1977 8.2081 22.083 8.13147 21.9569 8.07919C21.8307 8.02691 21.6955 8 21.5589 8C21.4223 8 21.2871 8.02691 21.1609 8.07919C21.0348 8.13147 20.9201 8.2081 20.8236 8.30469L7.30357 21.8247C7.109 22.0198 6.99981 22.2842 7 22.5597C7.00019 22.8353 7.10973 23.0995 7.30457 23.2943C7.49942 23.4892 7.76363 23.5987 8.03918 23.5989C8.31472 23.5991 8.57908 23.4899 8.77419 23.2953L10.9963 21.0733V34H17.468C17.4589 34 17.4499 33.9982 17.4415 33.9947C17.4331 33.9913 17.4255 33.9862 17.4191 33.9798C17.4126 33.9733 17.4075 33.9657 17.4041 33.9573C17.4006 33.9489 17.3988 33.94 17.3988 33.9309V26.2C17.3988 25.0967 17.8371 24.0386 18.6172 23.2584C19.3974 22.4783 20.4555 22.04 21.5588 22.04C22.6621 22.04 23.7202 22.4783 24.5004 23.2584C25.2805 24.0386 25.7188 25.0967 25.7188 26.2V33.9308C25.7188 33.9492 25.7115 33.9668 25.6985 33.9797C25.6856 33.9927 25.668 34 25.6497 34H32.1213V21.073L34.3436 23.2953C34.4401 23.3921 34.5548 23.4689 34.681 23.5214C34.8072 23.5738 34.9426 23.6008 35.0792 23.6009C35.2159 23.601 35.3513 23.5742 35.4776 23.5219C35.6039 23.4696 35.7186 23.393 35.8153 23.2963C35.9119 23.1997 35.9886 23.0849 36.0408 22.9586C36.0931 22.8324 36.1199 22.697 36.1198 22.5603C36.1197 22.4236 36.0927 22.2883 36.0403 22.1621C35.9878 22.0359 35.911 21.9212 35.8143 21.8247H35.8142Z" fill="#EDF2FA"/>
</svg>
