<svg width="44" height="44" viewBox="0 0 44 44" fill="none" xmlns="http://www.w3.org/2000/svg">
<circle cx="22" cy="22" r="22" fill="#09184D"/>
<path d="M31.5908 19.1438C31.6919 18.5491 31.7476 17.9373 31.7476 17.3118C31.7476 11.6261 27.3748 7 22 7C16.6249 7 12.2519 11.6261 12.2519 17.3118C12.2519 17.9373 12.3079 18.5486 12.4092 19.1438C11.5628 19.6991 11 20.67 11 21.7788V31.8737C11 33.6004 12.3627 35 14.0431 35H29.9567C31.6366 35 32.9991 33.6004 32.9991 31.8737H33V21.7788C33 20.6702 32.4376 19.6991 31.5908 19.1438ZM23.3428 27.9583V30.1521C23.3428 30.9145 22.7415 31.5322 21.9995 31.5322C21.2576 31.5322 20.6563 30.9145 20.6563 30.1521V27.9573C19.7947 27.4696 19.2103 26.5285 19.2103 25.4462C19.2103 23.8638 20.4591 22.5807 22 22.5807C23.5409 22.5807 24.7899 23.8638 24.7899 25.4462C24.7899 26.529 24.205 27.4708 23.3428 27.9583ZM28.0387 18.6522H15.961C15.8782 18.2195 15.8341 17.7708 15.8341 17.3118C15.8341 13.6549 18.6 10.6799 22 10.6799C25.3997 10.6799 28.1654 13.6546 28.1654 17.3118C28.1654 17.7708 28.1218 18.2195 28.0387 18.6522Z" fill="#EDF2FA"/>
</svg>
