<svg width="44" height="44" viewBox="0 0 44 44" fill="none" xmlns="http://www.w3.org/2000/svg">
<path d="M22 0C17.6488 0 13.3953 1.29028 9.77746 3.70767C6.15958 6.12506 3.33979 9.56099 1.67466 13.581C0.00953225 17.6009 -0.426141 22.0244 0.422734 26.292C1.27161 30.5596 3.3669 34.4796 6.44366 37.5563C9.52041 40.6331 13.4404 42.7284 17.708 43.5773C21.9756 44.4261 26.3991 43.9905 30.419 42.3253C34.439 40.6602 37.8749 37.8404 40.2923 34.2225C42.7097 30.6047 44 26.3512 44 22C44 19.1109 43.431 16.2501 42.3254 13.581C41.2197 10.9118 39.5992 8.48654 37.5564 6.44365C35.5135 4.40076 33.0882 2.78025 30.419 1.67465C27.7499 0.569047 24.8891 0 22 0ZM20.9 6.6C21.5527 6.6 22.1907 6.79354 22.7334 7.15615C23.2761 7.51876 23.699 8.03415 23.9488 8.63714C24.1986 9.24014 24.2639 9.90366 24.1366 10.5438C24.0093 11.1839 23.695 11.7719 23.2335 12.2334C22.7719 12.695 22.1839 13.0093 21.5438 13.1366C20.9037 13.2639 20.2401 13.1986 19.6372 12.9488C19.0342 12.699 18.5188 12.2761 18.1562 11.7334C17.7935 11.1907 17.6 10.5527 17.6 9.9C17.6 9.02478 17.9477 8.18541 18.5666 7.56655C19.1854 6.94768 20.0248 6.6 20.9 6.6ZM26.4 35.2H24.2C23.0331 35.2 21.9139 34.7364 21.0887 33.9113C20.2636 33.0861 19.8 31.9669 19.8 30.8V22C19.2165 22 18.657 21.7682 18.2444 21.3556C17.8318 20.943 17.6 20.3835 17.6 19.8C17.6 19.2165 17.8318 18.6569 18.2444 18.2444C18.657 17.8318 19.2165 17.6 19.8 17.6H22C22.5835 17.6 23.1431 17.8318 23.5556 18.2444C23.9682 18.6569 24.2 19.2165 24.2 19.8V30.8H26.4C26.9835 30.8 27.5431 31.0318 27.9556 31.4444C28.3682 31.8569 28.6 32.4165 28.6 33C28.6 33.5835 28.3682 34.143 27.9556 34.5556C27.5431 34.9682 26.9835 35.2 26.4 35.2Z" fill="#09184D"/>
</svg>
