<svg width="44" height="44" viewBox="0 0 44 44" fill="none" xmlns="http://www.w3.org/2000/svg">
<path d="M22 17.6C24.42 17.6 26.4 15.62 26.4 13.2V4.4C26.4 1.98 24.42 0 22 0C19.58 0 17.6 1.98 17.6 4.4V13.2C17.6 15.62 19.58 17.6 22 17.6Z" fill="#09184D"/>
<path d="M37.62 6.38C36.96 5.72 36.3 5.5 35.2 5.5C33.44 5.5 31.9 7.04 31.9 8.8C31.9 9.68 32.34 10.56 32.78 11.22C35.64 14.08 37.18 17.82 37.18 22C37.18 30.58 30.36 37.4 21.78 37.4C13.2 37.4 6.38 30.58 6.38 22C6.38 17.82 8.14 13.86 11 11.22C11.66 10.56 12.1 9.68 12.1 8.8C12.1 7.04 10.56 5.5 8.8 5.5C7.92 5.5 7.04 5.94 6.38 6.38C2.42 10.34 0 15.84 0 22C0 34.1 9.9 44 22 44C34.1 44 44 34.1 44 22C44 15.84 41.58 10.34 37.62 6.38Z" fill="#09184D"/>
</svg>
