<svg width="80" height="80" viewBox="0 0 80 80" fill="none" xmlns="http://www.w3.org/2000/svg">
<path d="M40 80C62.0914 80 80 62.0914 80 40C80 17.9086 62.0914 0 40 0C17.9086 0 0 17.9086 0 40C0 62.0914 17.9086 80 40 80Z" fill="#7B5BF2"/>
<path d="M33.9375 60.75L15.5 42.3125C15.25 42.0625 15.25 41.6875 15.5 41.4375L20.8125 36.125C21.0625 35.875 21.4375 35.875 21.6875 36.125L34.375 48.8125L58.25 24.9375C58.5 24.6875 58.875 24.6875 59.125 24.9375L64.4375 30.25C64.6875 30.5 64.6875 30.875 64.4375 31.125L34.8125 60.75C34.5625 61 34.1875 61 33.9375 60.75Z" fill="#EDF2FA"/>
</svg>
