<svg width="69" height="69" viewBox="0 0 69 69" fill="none" xmlns="http://www.w3.org/2000/svg">
<path d="M68.5832 41.3062L69 30.2929L60.8295 28.3068C60.3247 26.1406 59.5487 24.0377 58.5162 22.0385L63.4099 15.2111L55.9201 7.13207L48.7413 11.5079C46.8626 10.3406 44.8236 9.40456 42.6632 8.71721L41.3018 0.417761L30.2849 0L28.2983 8.18376C26.1452 8.68579 24.0476 9.46161 22.0442 10.4971L15.2163 5.58881L7.13585 13.0774L11.4986 20.255C10.3163 22.1704 9.38321 24.2089 8.71613 26.3306L0.41787 27.6928L0 38.706L8.17155 40.6916C8.67527 42.8584 9.45126 44.9612 10.4849 46.9604L5.59117 53.7878L13.081 61.8674L20.2608 57.4894C22.1804 58.6731 24.2141 59.6059 26.3232 60.2697L27.6846 68.5645L38.6994 69L40.687 60.8262C42.8957 60.3032 44.9995 59.5243 46.9589 58.5034L53.7848 63.4101L61.8652 55.9216L57.5024 48.7435C58.6837 46.828 59.6168 44.7895 60.2849 42.6678L68.5832 41.3062ZM58.4198 41.4229C57.7412 43.7902 56.7055 46.0522 55.342 48.1467L54.9734 48.7115L59.1236 55.5394L53.613 60.6461L47.1149 55.9745L46.5201 56.3043C44.3869 57.4884 42.0516 58.3542 39.5801 58.8767L38.9193 59.0165L37.0301 66.7877L29.5173 66.4914L28.2208 58.5919L27.5684 58.405C25.2163 57.7323 22.9595 56.6969 20.8577 55.3285L20.2912 54.9594L13.4622 59.1233L8.35378 53.614L13.0098 47.1201L12.6851 46.5285C11.4829 44.3372 10.621 42.0035 10.1257 39.5923L9.98849 38.9264L2.20966 37.0361L2.49556 29.525L10.3948 28.2283L10.5823 27.575C11.2588 25.2088 12.2945 22.9468 13.659 20.8523L14.0277 20.2869L9.87749 13.4595L15.388 8.35285L21.8819 13.0214L22.4746 12.6968C24.6749 11.4912 27.0039 10.63 29.3979 10.1374L30.0639 10.0003L31.9563 2.20913L39.4691 2.49391L40.7645 10.3877L41.4128 10.5772C43.835 11.2844 46.097 12.3241 48.1381 13.6673L48.7057 14.0406L55.5389 9.87516L60.6473 15.3849L55.9913 21.8783L56.3159 22.4699C57.5171 24.6617 58.379 26.9954 58.8754 29.4067L59.0126 30.072L66.7904 31.9629L66.5055 39.4739L58.6062 40.7701L58.4198 41.4229Z" fill="#09184D"/>
<path d="M35.2728 14.0135C23.9669 13.6073 14.4436 22.4207 14.015 33.7281C13.5861 45.0242 22.4211 54.5599 33.7271 54.9887C33.9866 55 34.2461 55 34.5056 55C45.4618 55 54.5676 46.3107 54.9851 35.2741C55.4138 23.9779 46.5675 14.4423 35.2728 14.0135ZM35.0249 20.6324C38.3391 20.7581 40.9242 23.5473 40.7984 26.8621C40.6726 30.177 37.7953 35.0989 34.4808 34.9731C31.1666 34.8474 28.6702 29.7217 28.7958 26.4068C28.9216 23.092 31.7104 20.5067 35.0249 20.6324ZM45.7664 48.861C42.4944 51.4452 38.3081 52.9123 33.806 52.7317C29.4958 52.5737 25.5918 50.9149 22.5678 48.2855V42.959C22.7032 39.5398 25.5692 36.8766 28.9768 37.0007L30.9852 37.0797L34.1107 43.6136C34.1107 43.6587 34.1783 43.6587 34.2009 43.6136L37.8004 37.3392L39.7975 37.4069C43.2164 37.5423 45.8907 40.4199 45.7665 43.8393V48.861H45.7664Z" fill="#09184D"/>
</svg>
