<svg width="30" height="30" viewBox="0 0 30 30" fill="none" xmlns="http://www.w3.org/2000/svg">
<path d="M12.7598 25.5181C11.0835 25.521 9.42302 25.1927 7.87392 24.552C6.32482 23.9114 4.91757 22.9709 3.73301 21.7848C-1.24434 16.8078 -1.24434 8.70873 3.73301 3.73247C8.71036 -1.24379 16.81 -1.24452 21.7867 3.73247C23.5728 5.51695 24.7893 7.79116 25.2823 10.2673C25.7753 12.7434 25.5226 15.3101 24.5562 17.6425C23.5898 19.975 21.953 21.9683 19.8532 23.3702C17.7533 24.7722 15.2847 25.5197 12.7598 25.5181ZM12.7598 2.20227C11.3731 2.19963 9.99951 2.47081 8.71786 3.00028C7.4362 3.52975 6.27172 4.30707 5.29124 5.28764C1.17712 9.40588 1.17712 16.1055 5.29124 20.2238C6.26658 21.228 7.43184 22.0284 8.71928 22.5783C10.0067 23.1282 11.3906 23.4167 12.7906 23.427C14.1905 23.4373 15.5785 23.1692 16.8739 22.6383C18.1693 22.1075 19.3463 21.3244 20.3363 20.3346C21.3263 19.3448 22.1097 18.1681 22.6409 16.8729C23.1721 15.5777 23.4404 14.1899 23.4304 12.79C23.4204 11.3902 23.1321 10.0063 22.5824 8.71885C22.0327 7.43139 21.2326 6.26605 20.2284 5.29058C19.2485 4.30888 18.0842 3.53043 16.8025 2.99995C15.5208 2.46946 14.147 2.19738 12.7598 2.19934V2.20227Z" fill="#09184D" fill-opacity="0.6"/>
<path d="M12.7599 21.3108C10.7812 21.3095 8.86412 20.6222 7.33536 19.366C5.80661 18.1098 4.76072 16.3625 4.37589 14.4217C3.99105 12.481 4.29109 10.4668 5.22487 8.72241C6.15866 6.97802 7.66842 5.61134 9.49693 4.85521C11.3254 4.09909 13.3596 4.00029 15.2528 4.57566C17.1459 5.15104 18.7811 6.36498 19.8795 8.01066C20.978 9.65634 21.4718 11.6319 21.2769 13.6009C21.082 15.5698 20.2104 17.4103 18.8106 18.8087C18.0165 19.6037 17.0732 20.234 16.0349 20.6634C14.9965 21.0928 13.8835 21.3128 12.7599 21.3108ZM12.7599 6.40842C11.2907 6.40936 9.86732 6.91963 8.73222 7.85229C7.59712 8.78495 6.82053 10.0823 6.53477 11.5233C6.24901 12.9643 6.47175 14.4598 7.16504 15.755C7.85834 17.0502 8.97929 18.0649 10.3369 18.6264C11.6946 19.1878 13.2049 19.2612 14.6105 18.834C16.0162 18.4068 17.2303 17.5055 18.0459 16.2836C18.8615 15.0618 19.2282 13.5949 19.0835 12.133C18.9388 10.6711 18.2916 9.30456 17.2523 8.26626C16.6628 7.67601 15.9624 7.20804 15.1914 6.88922C14.4205 6.5704 13.5941 6.40701 12.7599 6.40842Z" fill="#09184D" fill-opacity="0.6"/>
<path d="M27.3141 30C26.9609 30.0009 26.611 29.9319 26.2847 29.7969C25.9584 29.6619 25.662 29.4636 25.4128 29.2134L19.9756 23.7768C19.7911 23.5923 19.6875 23.3421 19.6875 23.0813C19.6875 22.8204 19.7911 22.5703 19.9756 22.3858C20.1601 22.2014 20.4103 22.0977 20.6713 22.0977C20.9322 22.0977 21.1824 22.2014 21.3669 22.3858L26.8014 27.8218C26.8676 27.8919 26.9472 27.948 27.0355 27.9868C27.1238 28.0256 27.219 28.0463 27.3154 28.0477C27.4118 28.0491 27.5076 28.0311 27.5969 27.9948C27.6863 27.9586 27.7675 27.9048 27.8357 27.8366C27.9038 27.7684 27.9577 27.6872 27.9939 27.5979C28.0302 27.5085 28.0482 27.4128 28.0468 27.3164C28.0454 27.22 28.0247 27.1248 27.9859 27.0366C27.9471 26.9483 27.891 26.8687 27.8209 26.8025L22.3838 21.3665C22.2924 21.2752 22.2199 21.1668 22.1705 21.0474C22.1211 20.9281 22.0956 20.8002 22.0956 20.671C22.0956 20.5419 22.1211 20.414 22.1705 20.2947C22.2199 20.1753 22.2924 20.0669 22.3838 19.9756C22.4751 19.8842 22.5836 19.8118 22.7029 19.7624C22.8223 19.7129 22.9502 19.6875 23.0794 19.6875C23.2086 19.6875 23.3365 19.7129 23.4558 19.7624C23.5752 19.8118 23.6836 19.8842 23.775 19.9756L29.2121 25.4116C29.5883 25.7874 29.8445 26.2664 29.9483 26.7879C30.0521 27.3093 29.9989 27.8499 29.7953 28.3411C29.5918 28.8323 29.2471 29.2521 28.8048 29.5474C28.3625 29.8427 27.8426 30.0002 27.3108 30H27.3141Z" fill="#09184D" fill-opacity="0.6"/>
</svg>
