<svg width="44" height="44" viewBox="0 0 44 44" fill="none" xmlns="http://www.w3.org/2000/svg">
<circle cx="22" cy="22" r="21.1373" fill="#EDF2FA"/>
<path d="M22 0C9.84844 0 0 9.84844 0 22C0 34.1516 9.84844 44 22 44C34.1516 44 44 34.1516 44 22C44 9.84844 34.1516 0 22 0ZM22 11C25.4177 11 28.1875 13.7706 28.1875 17.1875C28.1875 20.6044 25.4203 23.375 22 23.375C18.5831 23.375 15.8125 20.6044 15.8125 17.1875C15.8125 13.7706 18.5797 11 22 11ZM22 38.5C17.4513 38.5 13.3289 36.6498 10.3383 33.6626C11.7305 30.0695 15.168 27.5 19.25 27.5H24.75C28.8355 27.5 32.273 30.0678 33.6617 33.6626C30.6711 36.6523 26.5461 38.5 22 38.5Z" fill="#09184D"/>
</svg>
