<svg width="81" height="72" viewBox="0 0 81 72" fill="none" xmlns="http://www.w3.org/2000/svg">
<path d="M35.738 71.3233C39.7491 71.2768 43.4729 70.6192 46.9075 69.4792C48.9162 68.8125 50.7386 68.0103 52.402 67.1115C53.5217 66.5065 54.2011 66.0809 55.2879 65.3541C55.7562 65.041 55.8664 64.3974 55.5293 63.9453L52.0194 59.1876C51.7121 58.7792 51.1441 58.6753 50.7131 58.9488L49.4844 59.7157L48.9447 60.0247L48.5129 60.2586C47.2687 60.9251 45.9259 61.5193 44.456 62.0177C41.7512 62.9348 38.8419 63.4497 35.7267 63.4497C20.8113 63.4497 8.21941 51.5085 8.21941 35.8918C8.21941 20.9404 20.3549 8.27724 35.7267 8.27724L36.3554 8.2845C49.1213 8.57923 60.7347 17.8287 62.8719 31.7888L62.9663 32.4514L54.9142 30.0958C54.1652 29.8755 53.4725 30.5793 53.701 31.3284L60.5484 53.7768C60.7561 54.4578 61.5933 54.6987 62.1289 54.2317L79.7867 38.8368C80.375 38.3238 80.161 37.3603 79.4113 37.1468L75.9897 36.1693L71.0167 34.7276L70.9998 34.1606C70.2951 15.5355 54.5779 0.403555 35.7267 0.403558C16.1161 0.403558 0.375468 16.5057 0.375466 35.8918C0.375468 55.312 16.2442 71.5489 35.738 71.3233Z" fill="#7B5BF2"/>
</svg>
