<svg width="44" height="44" viewBox="0 0 44 44" fill="none" xmlns="http://www.w3.org/2000/svg">
<circle cx="22" cy="22" r="22" fill="#09184D"/>
<path d="M34.1875 11H8.8125C8.57444 10.9999 8.33869 11.0472 8.11873 11.1393C7.89876 11.2314 7.6989 11.3664 7.53057 11.5367C7.36224 11.7069 7.22873 11.9091 7.13769 12.1316C7.04665 12.3541 6.99987 12.5925 7 12.8333V31.1667C6.99987 31.4075 7.04665 31.6459 7.13769 31.8684C7.22873 32.0909 7.36224 32.2931 7.53057 32.4633C7.6989 32.6336 7.89876 32.7686 8.11873 32.8607C8.33869 32.9528 8.57444 33.0001 8.8125 33H34.1875C34.4256 33.0001 34.6613 32.9528 34.8813 32.8607C35.1012 32.7686 35.3011 32.6336 35.4694 32.4633C35.6378 32.2931 35.7713 32.0909 35.8623 31.8684C35.9533 31.6459 36.0001 31.4075 36 31.1667V12.8333C36.0001 12.5925 35.9533 12.3541 35.8623 12.1316C35.7713 11.9091 35.6378 11.7069 35.4694 11.5367C35.3011 11.3664 35.1012 11.2314 34.8813 11.1393C34.6613 11.0472 34.4256 10.9999 34.1875 11ZM32.375 14.6667V15.4363L21.5 21.7225L10.625 15.4363V14.6667H32.375ZM10.625 29.3333V19.6589L20.6008 25.425C20.8746 25.5834 21.1846 25.6667 21.5 25.6667C21.8154 25.6667 22.1254 25.5834 22.3992 25.425L32.375 19.6589V29.3333H10.625Z" fill="#EDF2FA"/>
</svg>
