<svg width="24" height="19" viewBox="0 0 24 19" fill="none" xmlns="http://www.w3.org/2000/svg">
<path d="M23.0769 6.33337C22.8321 6.33337 22.5973 6.44458 22.4242 6.64254C22.2511 6.84049 22.1538 7.10898 22.1538 7.38893V15.8334C22.1538 16.1133 22.0566 16.3818 21.8835 16.5798C21.7104 16.7777 21.4756 16.8889 21.2308 16.8889H2.76923C2.52442 16.8889 2.28963 16.7777 2.11652 16.5798C1.94341 16.3818 1.84615 16.1133 1.84615 15.8334V7.38893C1.84615 7.10898 1.7489 6.84049 1.57579 6.64254C1.40268 6.44458 1.16789 6.33337 0.923077 6.33337C0.678262 6.33337 0.443473 6.44458 0.270363 6.64254C0.0972524 6.84049 0 7.10898 0 7.38893V15.8334C0.000646346 16.6729 0.292828 17.4779 0.812308 18.0712C1.33114 18.6652 2.03503 18.9993 2.76923 19H21.2308C21.965 18.9993 22.6689 18.6652 23.1877 18.0712C23.7072 17.4779 23.9994 16.6729 24 15.8334V7.38893C24 7.10898 23.9027 6.84049 23.7296 6.64254C23.5565 6.44458 23.3217 6.33337 23.0769 6.33337Z" fill="#09184D" fill-opacity="0.5"/>
<path d="M11.4462 12.4556C11.6059 12.5926 11.8003 12.6667 12 12.6667C12.1997 12.6667 12.3941 12.5926 12.5538 12.4556L23.4554 3.10333C23.6255 2.95668 23.7459 2.74729 23.7964 2.51066C23.8469 2.27403 23.8242 2.02472 23.7323 1.805C23.5948 1.48023 23.4108 1.18409 23.1877 0.928889C22.6689 0.334854 21.965 0.000739109 21.2308 0H2.76923C2.03503 0.000739109 1.33114 0.334854 0.81231 0.928889C0.589253 1.18409 0.405166 1.48023 0.267694 1.805C0.175771 2.02472 0.153125 2.27403 0.203597 2.51066C0.254068 2.74729 0.374551 2.95668 0.544617 3.10333L11.4462 12.4556ZM2.76923 2.11111H21.2308C21.3164 2.09569 21.4036 2.09569 21.4892 2.11111L12 10.2917L2.51077 2.11111C2.5964 2.09569 2.68361 2.09569 2.76923 2.11111Z" fill="#09184D" fill-opacity="0.5"/>
</svg>
