<svg width="44" height="44" viewBox="0 0 44 44" fill="none" xmlns="http://www.w3.org/2000/svg">
<path d="M42.1264 25.5268L40.4801 23.7585C40.4819 23.743 40.4815 23.7279 40.4797 23.7048C40.5151 23.3104 40.5385 22.9132 40.554 22.5156C40.5576 22.4009 40.5529 22.2782 40.5551 22.1635C40.5584 21.8586 40.554 21.5638 40.5403 21.2694C40.5345 21.1406 40.5277 21.0208 40.5194 20.8927C40.5125 20.6961 40.5024 20.502 40.4876 20.2967L42.1387 18.5407C42.9263 17.7018 44.3561 16.588 43.9185 15.5276L42.1109 11.1414C41.6732 10.0799 39.8761 10.3025 38.7269 10.2625L36.3164 10.1755C36.1342 9.95762 35.938 9.75052 35.7493 9.54017C35.7421 9.53223 35.7334 9.51997 35.7244 9.50878C35.6573 9.43843 35.6006 9.36194 35.5328 9.29266C35.4307 9.18154 35.3131 9.07546 35.2077 8.96722C35.0551 8.81352 34.9032 8.6573 34.7466 8.50865C34.4897 8.2615 34.2188 8.02842 33.9518 7.79715C33.9409 7.78597 33.9236 7.77659 33.9142 7.76901C33.8998 7.75494 33.8868 7.73906 33.8724 7.72463L33.7945 5.3098C33.7591 4.16643 33.9839 2.36604 32.9296 1.92731L28.5419 0.101306C27.4862 -0.338148 26.3649 1.09242 25.5286 1.87283L23.7617 3.5224C23.3656 3.48271 22.9723 3.46215 22.5787 3.447C22.4686 3.44267 22.3579 3.44483 22.2402 3.44555C21.9866 3.44339 21.7308 3.43581 21.4699 3.44591C21.1405 3.45638 20.8111 3.47694 20.4828 3.50545C20.4406 3.50761 20.3984 3.50761 20.3652 3.5105C20.3417 3.51519 20.324 3.51158 20.3002 3.51627L18.5428 1.86164C17.7054 1.07835 16.5901 -0.355827 15.5297 0.081101L11.1435 1.8887C10.082 2.32599 10.3065 4.12746 10.2642 5.27336L10.1787 7.68747C10.1524 7.70731 10.1261 7.73473 10.1015 7.75891C9.81324 7.9992 9.53037 8.24743 9.25544 8.50576C9.15406 8.60534 9.05628 8.70564 8.95706 8.80631C8.76187 8.99645 8.56596 9.19272 8.3787 9.39441C8.28273 9.49904 8.19434 9.60511 8.10089 9.71191C7.97389 9.84974 7.84977 9.98576 7.72818 10.1312L5.31191 10.2051C4.16854 10.2408 2.36816 10.0161 1.92942 11.0707L0.1027 15.458C-0.336393 16.5141 1.09201 17.6315 1.87242 18.4678L3.52235 20.235C3.49565 20.5085 3.48375 20.7805 3.46859 21.0572C3.46895 21.0829 3.46426 21.1099 3.46498 21.1355C3.44261 21.6046 3.43143 22.0729 3.44767 22.5398C3.45524 22.7447 3.4704 22.946 3.48338 23.1506C3.49529 23.3158 3.4989 23.484 3.51441 23.6489C3.51333 23.6669 3.51477 23.6835 3.51622 23.6958L1.86304 25.4579C1.07938 26.2939 -0.355876 27.4059 0.0810517 28.4659L1.88865 32.8521C2.3263 33.9143 4.12885 33.6931 5.27475 33.735L7.68741 33.8169C7.70365 33.8407 7.72313 33.8548 7.74045 33.8793C7.98507 34.173 8.24196 34.4598 8.50967 34.7485C8.60384 34.8499 8.70342 34.9368 8.79903 35.0364C8.99567 35.2359 9.19375 35.4333 9.39868 35.6256C9.49934 35.7129 9.60578 35.8042 9.70753 35.8983C9.85004 36.0243 9.98859 36.1527 10.1315 36.2674L10.2051 38.6834C10.2411 39.8267 10.0175 41.6314 11.0724 42.0705L15.4597 43.8969C16.5162 44.3367 17.6328 42.9072 18.4692 42.1268L20.2378 40.4809C20.2573 40.4812 20.276 40.4787 20.2955 40.4791C20.5232 40.5043 20.7491 40.513 20.9749 40.5245C21.0427 40.5303 21.1084 40.5307 21.1726 40.5375C21.2787 40.5408 21.3804 40.549 21.4829 40.5527C21.6041 40.5552 21.725 40.5516 21.8462 40.5519C22.141 40.5588 22.4361 40.5527 22.7284 40.5393C22.8558 40.535 22.986 40.5252 23.1119 40.518C23.3107 40.5094 23.5023 40.4996 23.6979 40.4881L25.4582 42.1369C26.2967 42.9246 27.4062 44.3562 28.4662 43.9186L32.8528 42.1109C33.9146 41.6729 33.6952 39.8744 33.7356 38.7248L33.8186 36.3162C34.0254 36.1437 34.2245 35.964 34.4168 35.7887C34.4439 35.7573 34.4749 35.7353 34.5045 35.7104C34.5716 35.6469 34.6434 35.5935 34.7011 35.5325C34.818 35.429 34.9187 35.3146 35.0251 35.2114C35.1774 35.0573 35.339 34.9033 35.4938 34.742C35.7186 34.5006 35.9448 34.2481 36.1635 33.985C36.1884 33.9616 36.2078 33.9417 36.2291 33.9111C36.2475 33.8948 36.2587 33.884 36.2692 33.8714L38.6833 33.7938C39.8267 33.7581 41.6314 33.9818 42.0705 32.9268L43.8968 28.5395C44.3381 27.4842 42.9064 26.3631 42.1264 25.5268ZM31.6524 21.9989C31.6524 27.329 27.3311 31.6503 22.001 31.6503C16.6709 31.6503 12.3497 27.329 12.3497 21.9989C12.3497 16.6688 16.6709 12.3475 22.001 12.3475C27.3311 12.3475 31.6524 16.6688 31.6524 21.9989Z" fill="#09184D"/>
</svg>
