<svg width="20" height="21" viewBox="0 0 20 21" fill="none" xmlns="http://www.w3.org/2000/svg">
<path d="M10.5826 1.37955L12.8603 6.21449C12.9551 6.41525 13.1379 6.5544 13.3497 6.58694L18.443 7.36231C18.9761 7.4433 19.1886 8.12936 18.803 8.52327L15.1172 12.2866C14.9642 12.443 14.8943 12.668 14.9303 12.8888L15.8005 18.2029C15.8912 18.7588 15.3346 19.1831 14.8576 18.9201L10.3022 16.4112C10.1132 16.3067 9.88681 16.3067 9.69781 16.4112L5.14243 18.9201C4.66613 19.1824 4.10882 18.7588 4.19951 18.2029L5.06974 12.8888C5.10574 12.668 5.03582 12.443 4.88282 12.2866L1.19698 8.52327C0.811364 8.12936 1.0239 7.4433 1.55698 7.36231L6.65028 6.58694C6.86212 6.5544 7.04489 6.41525 7.13974 6.21449L9.41742 1.37955C9.65558 0.873484 10.3437 0.873484 10.5826 1.37955Z" stroke="#7B5BF2" stroke-width="2" stroke-miterlimit="10" stroke-linecap="round" stroke-linejoin="round"/>
</svg>
