<svg width="51" height="51" viewBox="0 0 51 51" fill="none" xmlns="http://www.w3.org/2000/svg">
<circle cx="25.5" cy="25.5" r="24.5" fill="#EDF2FA"/>
<path d="M25.5 0C11.4152 0 0 11.4152 0 25.5C0 39.5848 11.4152 51 25.5 51C39.5848 51 51 39.5848 51 25.5C51 11.4152 39.5848 0 25.5 0ZM25.5 12.75C29.4615 12.75 32.6719 15.9614 32.6719 19.9219C32.6719 23.8823 29.4645 27.0938 25.5 27.0938C21.5395 27.0938 18.3281 23.8823 18.3281 19.9219C18.3281 15.9614 21.5355 12.75 25.5 12.75ZM25.5 44.625C20.2277 44.625 15.4494 42.4804 11.983 39.018C13.5967 34.8533 17.5811 31.875 22.3125 31.875H28.6875C33.4229 31.875 37.4073 34.8513 39.017 39.018C35.5506 42.4834 30.7693 44.625 25.5 44.625Z" fill="#7B5BF2"/>
</svg>
