<?xml version="1.0" ?><svg viewBox="0 0 64 64" xmlns="http://www.w3.org/2000/svg"><defs><style>.cls-1{fill:#dd5891;}.cls-2{fill:#94d8e5;}.cls-3{fill:#7bd1e0;}.cls-4{fill:#9be69d;}.cls-5{fill:#617880;}.cls-6{fill:#e0e9ee;}.cls-7{fill:#748a95;}.cls-8{fill:#f0f4f7;}.cls-9{fill:#d0e1e8;}</style></defs><g id="Office"><path class="cls-1" d="M12.71,51.68V13a2.43,2.43,0,0,1,2.44-2.43H32.66A2.43,2.43,0,0,1,35.1,13V51.84Z" id="path5816-7"/><path class="cls-2" d="M29.77,34.38H16.07V14.23H31.74V29.75Z" id="path7054-5"/><path class="cls-3" d="M28.62,14.23v4.28a2.43,2.43,0,0,0-2,2.39V34.38h3.13l2-4.63V14.23Z" id="path458196"/><path class="cls-4" d="M18.89,37.89a3.51,3.51,0,1,1-3.51-3.5A3.51,3.51,0,0,1,18.89,37.89Z" id="path182280-9-3"/><path class="cls-5" d="M26.76,49.9V42.69a2.85,2.85,0,0,0-5.7,0V49.9l2.59,1.65Z" id="path6485-1"/><path class="cls-6" d="M29.76,49.9V23.08a2.43,2.43,0,0,1,2.44-2.43H49.72a2.43,2.43,0,0,1,2.44,2.43V49.9L40.59,51.58Z" id="rect5361-1"/><path class="cls-5" d="M43.72,49.9V44.13a2.85,2.85,0,1,0-5.7,0V49.9L41.1,51Z" id="rect6151-7"/><path class="cls-7" d="M10.08,49.9H53.92c2.75,0,2.8,4.32,0,4.32H10.08C7.33,54.22,7.28,49.9,10.08,49.9Z" id="rect315703-9"/><path class="cls-2" d="M40.19,24.56H33.12V37.91H48.8V26.84l-3-4.77Z" id="rect6744-1"/><path class="cls-8" d="M40.19,20.65V31.94a1.44,1.44,0,1,0,2.87,0V24.55a1.44,1.44,0,0,1,2.87,0v2.28a1.44,1.44,0,1,0,2.87,0V20.65Z" id="path10769-9"/><path class="cls-5" d="M48.36,49.9c2.75,0,2.79,4.32,0,4.32h5.56c2.75,0,2.8-4.32,0-4.32Z" id="path448644"/><path class="cls-9" d="M52.16,49.9V23.08a2.43,2.43,0,0,0-2.44-2.43H48.23a2.43,2.43,0,0,1,1.48,2.24V49.7Z" id="path461377"/><path class="cls-3" d="M48.8,26.84a1.43,1.43,0,0,1-1.44,1.43,1.41,1.41,0,0,1-.81-.25v9.89H48.8Z" id="path465778"/><circle cx="39.9" cy="11.03" r="1.25"/><circle cx="9.25" cy="25.85" r="1.25"/><path d="M50,15.61l.31.18a1,1,0,0,0,.5.13,1,1,0,0,0,.86-.5,1,1,0,0,0-.36-1.36L51,13.88a1,1,0,0,0-1,1.73Z"/><path d="M45.41,13l.31.18a1,1,0,0,0,1.36-.37,1,1,0,0,0-.36-1.37l-.31-.17a1,1,0,0,0-1,1.73Z"/><path d="M45.05,15.42a1,1,0,0,0,.86.5,1,1,0,0,0,.5-.13l.31-.18a1,1,0,0,0,.36-1.36,1,1,0,0,0-1.36-.37l-.31.18A1,1,0,0,0,45.05,15.42Z"/><path d="M50.45,13.3a1,1,0,0,0,.5-.13l.31-.18a1,1,0,0,0-1-1.73l-.31.18a1,1,0,0,0,.5,1.86Z"/><path d="M47.34,16.32a1,1,0,0,0,2,0V16a1,1,0,1,0-2,0Z"/><path d="M48.34,12.08a1,1,0,0,0,1-1v-.35a1,1,0,0,0-2,0v.35A1,1,0,0,0,48.34,12.08Z"/><path d="M53.92,48.9h-.76V23.08a3.44,3.44,0,0,0-3.44-3.43H36.1V13a3.44,3.44,0,0,0-3.43-3.43H15.15A3.44,3.44,0,0,0,11.71,13V35.3a4.46,4.46,0,0,0,0,5.18V48.9H10.08c-4.11,0-4.1,6.32,0,6.32H53.92C58,55.22,58,48.9,53.92,48.9ZM51.16,23.08V48.9H44.72V44.13a3.85,3.85,0,1,0-7.7,0V48.9H30.76V34.39h0V23.08a1.44,1.44,0,0,1,1.44-1.43h7v1.91H33.12a1,1,0,0,0-1,1V37.91a1,1,0,0,0,1,1H48.8a1,1,0,0,0,1-1V21.66A1.43,1.43,0,0,1,51.16,23.08ZM39,48.9V44.13a1.85,1.85,0,0,1,3.7,0V48.9Zm-17,0V42.69a1.85,1.85,0,1,1,3.69,0V48.9Zm1.85-10.06a3.85,3.85,0,0,0-3.85,3.85V48.9H16.38V42.27a4.48,4.48,0,0,0,2.74-6.89h9.64V48.9h-1V42.69A3.84,3.84,0,0,0,23.91,38.84Zm-11-1a2.51,2.51,0,1,1,2.5,2.5A2.51,2.51,0,0,1,12.88,37.89ZM25.52,15.23v3H22.29v-3Zm5.22,0v3H27.52v-3ZM22.29,33.38v-3h3.23v3Zm-5.22,0v-3h3.22v3Zm5.22-8.07h3.23v3H22.29Zm-2,3H17.07v-3h3.22Zm7.23-3h1.24v3H27.52Zm1.24-2.23v.23H27.52v-3h2.72A3.43,3.43,0,0,0,28.76,23.08Zm-3.24.23H22.29v-3h3.23Zm-5.23,0H17.07v-3h3.22Zm7.23,7h1.24v3H27.52ZM20.29,18.27H17.07v-3h3.22ZM41.62,34.38a2.45,2.45,0,0,0,2.44-2.44V24.55a.44.44,0,0,1,.87,0v2.28a2.43,2.43,0,0,0,2.43,2.44,3.13,3.13,0,0,0,.44,0v7.68H34.12V25.56h5.07v6.38A2.44,2.44,0,0,0,41.62,34.38Zm6.18-7.55a.44.44,0,1,1-.87,0V24.55a2.44,2.44,0,0,0-4.87,0v7.39a.44.44,0,1,1-.87,0V21.65H47.8ZM15.15,11.53H32.67A1.43,1.43,0,0,1,34.1,13v6.69H32.74V14.23a1,1,0,0,0-1-1H16.07a1,1,0,0,0-1,1V33.42a4.34,4.34,0,0,0-1.36.29V13A1.43,1.43,0,0,1,15.15,11.53ZM13.71,42.06a4,4,0,0,0,.67.21V48.9h-.67ZM53.92,53.22H10.08a1.16,1.16,0,0,1,0-2.32H53.92A1.16,1.16,0,0,1,53.92,53.22Z"/></g></svg>